# Blender v2.78 (sub 0) OBJ File: 'zeppelin.obj'
# www.blender.org
mtllib zeppelin.mtl
o Sphere
v -1.178480 0.676079 -0.776633
v -0.462665 0.825783 -0.586359
v 0.347914 0.481884 -0.764005
v -0.539036 -0.721157 -0.678971
v 0.417957 -0.907183 -0.244860
v -0.723950 -0.882367 -0.456831
v -0.633610 0.324502 -0.948056
v 0.587069 -0.016664 -0.856377
v 0.466789 -0.458577 -0.755914
v 0.966133 -0.629295 -0.479288
v 0.886588 0.642861 -0.473642
v 1.198234 0.390687 -0.546797
v -0.697163 0.981466 -0.272026
v -0.720489 1.011583 0.193516
v -0.076424 0.978519 -0.157441
v 1.347860 0.091345 -0.580810
v 1.317146 -0.287978 -0.555412
v 0.647303 0.851490 -0.232681
v 1.047394 -0.777313 -0.177382
v 1.607141 0.329048 -0.250791
v 1.656632 -0.088727 -0.276158
v 1.507605 -0.497909 -0.198032
v 1.303606 0.638783 -0.185203
v 0.182963 -0.950433 0.246224
v -0.361310 -0.977314 -0.159522
v -0.634148 -0.986737 0.131833
v 0.207404 0.945327 0.252241
v 0.715198 0.846864 0.302892
v 1.246501 -0.703254 0.278374
v 1.147421 0.716451 0.297642
v 1.455096 0.562836 0.248439
v 0.872055 -0.829825 0.303017
v 1.581720 0.336868 0.405898
v 1.668032 0.332232 0.131779
v 1.142944 0.573649 0.556390
v 1.398055 0.331449 0.621107
v 1.313293 0.098642 0.739929
v 1.577889 -0.088770 0.532606
v 1.125103 -0.260448 0.811311
v 1.431633 -0.448940 0.503822
v 0.786339 -0.705000 0.599503
v 0.374403 0.719769 0.662058
v 0.779126 0.230655 0.898443
v -0.254564 -0.634543 0.789276
v -0.608151 -0.879286 0.488511
v -0.294709 0.492488 0.896155
v 0.735233 -0.456384 0.816402
v -0.121569 -0.285979 0.980914
v -0.926538 0.785205 0.662751
v -1.239184 0.343580 0.933572
v -0.259745 0.117613 1.015744
v -1.356132 -0.048874 0.983263
v -1.065208 -0.577368 0.803970
v -1.880695 -0.184802 0.843842
v -1.714421 0.668222 0.666310
v -2.365087 0.424489 0.637063
v -1.961986 0.052505 1.066468
v -2.092412 -0.634637 0.506703
v -1.794513 0.905523 0.320265
v -2.380729 0.700892 0.415709
v -2.634036 -0.222324 0.533556
v -2.022510 0.173559 1.038112
v -2.820477 0.131895 0.667000
v -1.566047 -0.865938 0.310912
v -1.471367 -0.946801 0.015951
v -2.890965 -0.356920 0.268356
v -0.504040 -0.098614 -0.984129
v -2.134192 -0.793954 0.107743
v -2.828387 0.564105 0.252819
v -2.692843 0.755567 -0.024202
v -3.076669 0.524431 0.006222
v -2.269285 -1.061339 -0.095140
v -1.956501 -1.142159 -0.074267
v -2.168031 0.898668 0.085747
v -1.400419 1.008025 -0.034652
v -1.893053 1.248259 -0.062968
v -1.451129 -0.944956 -0.118280
v -2.306515 1.234263 -0.074859
v -2.671833 0.756546 -0.199656
v -2.775711 0.553681 -0.433961
v -2.975163 0.596009 -0.240425
v -2.129473 -0.782782 -0.262531
v -3.061476 0.220066 -0.592572
v -3.433675 0.190390 -0.143825
v -2.163032 0.896358 -0.239593
v -1.691649 0.907037 -0.414070
v -3.014552 -0.393102 -0.270261
v -3.078665 0.026183 -0.631373
v -2.568762 -0.407611 -0.632905
v -1.886813 -0.762361 -0.458209
v -2.414973 0.126746 -1.064301
v -1.861037 -0.173922 -0.936592
v -1.975947 -0.621696 -0.650816
v -2.058321 0.402769 -0.825334
v -1.958780 0.111263 -1.191465
v -1.498927 -0.458578 -0.852916
v -2.286028 0.694880 -0.592108
v -1.445121 0.094562 -1.011237
v -0.519766 -0.475115 -0.863931
v 1.711462 -0.097747 0.135954
v 1.543240 -0.501063 0.191655
v -3.472490 0.036608 -0.122515
v -3.032979 -0.401689 -0.007289
v 0.285138 -0.879871 -0.066678
v -0.395226 -0.879871 0.157422
v 0.285138 -0.879871 0.157422
v -0.395226 -0.879871 -0.066678
v -0.395226 -1.191640 0.157422
v -0.395226 -1.191640 -0.066678
v 0.285138 -1.191640 -0.066678
v 0.285138 -1.191640 0.157422
vt 0.0000 0.0000
vt 1.0000 0.0000
vt 1.0000 1.0000
vt 0.0000 0.0000
vt 1.0000 0.0000
vt 1.0000 1.0000
vt 0.0000 0.0000
vt 1.0000 0.0000
vt 1.0000 1.0000
vt 0.0000 0.0000
vt 1.0000 0.0000
vt 1.0000 1.0000
vt 0.0000 0.0000
vt 1.0000 0.0000
vt 1.0000 1.0000
vt 0.0000 0.0000
vt 1.0000 0.0000
vt 1.0000 1.0000
vt 0.0000 0.0000
vt 1.0000 0.0000
vt 1.0000 1.0000
vt 1.0000 0.0000
vt 1.0000 1.0000
vt 0.0000 0.0000
vt 1.0000 0.0000
vt 1.0000 1.0000
vt 1.0000 0.0000
vt 1.0000 1.0000
vt 0.0000 0.0000
vt 1.0000 0.0000
vt 1.0000 1.0000
vt 0.0000 0.0000
vt 1.0000 0.0000
vt 1.0000 1.0000
vt 1.0000 0.0000
vt 0.0000 0.0000
vt 1.0000 0.0000
vt 1.0000 1.0000
vt 0.0000 0.0000
vt 1.0000 1.0000
vt 0.0000 0.0000
vt 1.0000 0.0000
vt 1.0000 1.0000
vt 0.0000 0.0000
vt 1.0000 0.0000
vt 1.0000 1.0000
vt 0.0000 0.0000
vt 1.0000 0.0000
vt 1.0000 1.0000
vt 0.0000 0.0000
vt 1.0000 0.0000
vt 1.0000 1.0000
vt 0.0000 0.0000
vt 1.0000 0.0000
vt 1.0000 1.0000
vt 1.0000 0.0000
vt 0.0000 0.0000
vt 1.0000 0.0000
vt 1.0000 1.0000
vt 0.0000 0.0000
vt 1.0000 0.0000
vt 0.0000 0.0000
vt 1.0000 0.0000
vt 1.0000 1.0000
vt 0.0000 0.0000
vt 1.0000 1.0000
vt 0.0000 0.0000
vt 1.0000 0.0000
vt 1.0000 1.0000
vt 0.0000 0.0000
vt 1.0000 0.0000
vt 1.0000 1.0000
vt 1.0000 0.0000
vt 1.0000 1.0000
vt 0.0000 0.0000
vt 0.0000 0.0000
vt 1.0000 0.0000
vt 1.0000 1.0000
vt 0.0000 0.0000
vt 1.0000 0.0000
vt 1.0000 1.0000
vt 0.0000 0.0000
vt 1.0000 0.0000
vt 1.0000 1.0000
vt 0.0000 0.0000
vt 1.0000 0.0000
vt 1.0000 1.0000
vt 0.0000 0.0000
vt 1.0000 0.0000
vt 1.0000 1.0000
vt 0.0000 0.0000
vt 1.0000 0.0000
vt 1.0000 1.0000
vt 0.0000 0.0000
vt 1.0000 0.0000
vt 0.0000 0.0000
vt 1.0000 0.0000
vt 1.0000 1.0000
vt 0.0000 0.0000
vt 1.0000 0.0000
vt 1.0000 1.0000
vt 0.0000 0.0000
vt 1.0000 1.0000
vt 0.0000 0.0000
vt 1.0000 0.0000
vt 0.0000 0.0000
vt 1.0000 0.0000
vt 1.0000 1.0000
vt 1.0000 0.0000
vt 1.0000 1.0000
vt 0.0000 0.0000
vt 1.0000 0.0000
vt 1.0000 1.0000
vt 0.0000 0.0000
vt 1.0000 0.0000
vt 1.0000 0.0000
vt 1.0000 1.0000
vt 0.0000 0.0000
vt 1.0000 0.0000
vt 1.0000 1.0000
vt 1.0000 1.0000
vt 0.0000 1.0000
vt 0.0000 0.0000
vt 1.0000 0.0000
vt 0.0000 0.0000
vt 1.0000 1.0000
vt 0.0000 0.0000
vt 1.0000 0.0000
vt 1.0000 1.0000
vt 0.0000 0.0000
vt 1.0000 0.0000
vt 1.0000 1.0000
vt 1.0000 0.0000
vt 1.0000 1.0000
vt 0.0000 0.0000
vt 1.0000 0.0000
vt 1.0000 1.0000
vt 1.0000 1.0000
vt 0.0000 0.0000
vt 1.0000 0.0000
vt 1.0000 1.0000
vt 0.0000 0.0000
vt 0.0000 0.0000
vt 1.0000 0.0000
vt 1.0000 1.0000
vt 0.0000 0.0000
vt 1.0000 0.0000
vt 0.0000 0.0000
vt 0.0000 0.0000
vt 1.0000 0.0000
vt 1.0000 1.0000
vt 0.0000 0.0000
vt 1.0000 0.0000
vt 0.0000 0.0000
vt 1.0000 1.0000
vt 1.0000 0.0000
vt 1.0000 1.0000
vt 0.0000 0.0000
vt 1.0000 0.0000
vt 1.0000 1.0000
vt 0.0000 0.0000
vt 1.0000 0.0000
vt 1.0000 1.0000
vt 1.0000 0.0000
vt 0.0000 0.0000
vt 1.0000 0.0000
vt 1.0000 1.0000
vt 1.0000 0.0000
vt 0.0000 0.0000
vt 1.0000 0.0000
vt 0.0000 0.0000
vt 1.0000 0.0000
vt 0.0000 0.0000
vt 1.0000 0.0000
vt 1.0000 1.0000
vt 1.0000 1.0000
vt 0.0000 0.0000
vt 1.0000 1.0000
vt 0.0000 0.0000
vt 1.0000 0.0000
vt 1.0000 1.0000
vt 0.0000 0.0000
vt 1.0000 0.0000
vt 1.0000 0.0000
vt 1.0000 1.0000
vt 1.0000 0.0000
vt 1.0000 1.0000
vt 1.0000 1.0000
vt 0.0000 0.0000
vt 0.0000 0.0000
vt 1.0000 0.0000
vt 0.0000 0.0000
vt 0.0000 0.0000
vt 0.0000 1.0000
vt 1.0000 0.0000
vt 0.0000 0.0000
vt 0.0000 1.0000
vt 1.0000 0.0000
vt 0.0000 1.0000
vt 1.0000 0.0000
vt 1.0000 1.0000
vt 1.0000 1.0000
vt 1.0000 1.0000
vt 1.0000 0.0000
vt 0.0000 1.0000
vt 0.0000 0.0000
vt 0.0000 0.0000
vt 0.0000 1.0000
vt 0.0000 0.0000
vt 0.0000 1.0000
vt 0.0000 1.0000
vt 1.0000 1.0000
vt 0.0000 0.0000
vt 1.0000 1.0000
vt 0.0000 1.0000
vt 1.0000 0.0000
vt 1.0000 1.0000
vt 0.0000 0.0000
vt 1.0000 1.0000
vt 0.0000 1.0000
vt 0.0000 0.0000
vt 1.0000 0.0000
vt 0.0000 0.0000
vt 1.0000 0.0000
vt 1.0000 0.0000
vt 0.0000 0.0000
vt 1.0000 1.0000
vt 0.0000 1.0000
vt 0.0000 0.0000
vt 1.0000 0.0000
vt 1.0000 0.0000
vt 1.0000 1.0000
vt 0.0000 0.0000
vt 0.0000 1.0000
vt 0.0000 1.0000
vt 1.0000 1.0000
vt 0.0000 0.0000
vt 1.0000 0.0000
vt 1.0000 1.0000
vt 1.0000 1.0000
vt 0.0000 1.0000
vt 0.0000 1.0000
vt 0.0000 0.0000
vt 1.0000 0.0000
vt 1.0000 0.0000
vt 0.0000 0.0000
vt 1.0000 0.0000
vt 1.0000 1.0000
vt 0.0000 0.0000
vt 0.0000 0.0000
vt 0.0000 1.0000
vt 0.0000 1.0000
vt 0.0000 0.0000
vt 0.0000 0.0000
vt 1.0000 1.0000
vt 0.0000 1.0000
vt 1.0000 0.0000
vt 0.0000 1.0000
vt 1.0000 0.0000
vt 1.0000 1.0000
vt 1.0000 0.0000
vt 1.0000 1.0000
vt 1.0000 0.0000
vt 0.0000 1.0000
vt 1.0000 0.0000
vt 0.0000 0.0000
vt 0.0000 1.0000
vt 0.0000 0.0000
vt 0.0000 1.0000
vt 1.0000 0.1285
vt 0.0796 0.8980
vt 1.0000 0.0000
vt 1.0000 1.0000
vt 1.0000 1.0000
vt 1.0000 1.0000
vt 0.0000 0.0000
vt 0.0000 1.0000
vt 1.0000 1.0000
vt 0.0000 0.0000
vt 0.0000 0.0000
vt 1.0000 1.0000
vt 1.0000 1.0000
vt 0.0000 0.0000
vt 1.0000 1.0000
vt 1.0000 1.0000
vt 1.0000 0.0000
vt 0.0000 1.0000
vt 0.0000 0.0000
vt 1.0000 0.0000
vt 1.0000 0.0000
vt 1.0000 0.0000
vt 1.0000 0.0000
vt 1.0000 1.0000
vt 1.0000 0.0000
vt 0.0000 1.0000
vt 0.0000 0.0000
vt 1.0000 0.0000
vt 0.0000 1.0000
vt 0.0000 0.0000
vt 1.0000 0.0000
vt 0.0000 1.0000
vt 0.0000 0.0000
vt 1.0000 0.0000
vt 0.0000 0.0000
vt 0.0000 1.0000
vt 1.0000 1.0000
vt 1.0000 1.0000
vt 1.0000 1.0000
vt 1.0000 1.0000
vn 0.0836 0.6058 -0.7912
vn 0.0820 -0.8378 -0.5398
vn 0.1406 0.2452 -0.9592
vn 0.1346 -0.7161 -0.6849
vn 0.2614 0.5526 -0.7914
vn 0.0163 0.9978 -0.0637
vn 0.0165 0.9978 -0.0637
vn 0.3505 -0.0908 -0.9321
vn 0.2736 -0.2834 -0.9191
vn 0.1139 0.8991 -0.4227
vn 0.1571 0.8185 -0.5526
vn 0.2264 -0.8491 -0.4772
vn 0.7333 0.1274 -0.6679
vn 0.6674 -0.1034 -0.7375
vn 0.4738 -0.6255 -0.6199
vn 0.3063 0.8489 -0.4308
vn 0.0844 -0.9953 -0.0473
vn 0.0432 -0.9990 0.0082
vn 0.1919 0.9813 -0.0158
vn 0.5142 -0.8533 -0.0860
vn 0.4468 0.8946 0.0006
vn 0.1727 -0.9850 -0.0041
vn 0.7704 0.5937 0.2325
vn 0.4569 0.7754 0.4359
vn 0.6673 0.1312 0.7331
vn 0.5544 -0.1271 0.8225
vn 0.3465 -0.6054 0.7165
vn 0.2515 0.8124 0.5261
vn 0.3420 0.3254 0.8816
vn 0.1290 0.8900 0.4373
vn 0.0534 -0.8044 0.5917
vn 0.1232 0.5126 0.8497
vn 0.0022 -0.9575 0.2883
vn 0.0663 -0.5000 0.8635
vn -0.0536 0.5493 0.8339
vn -0.0156 -0.0913 0.9957
vn -0.0177 -0.4765 0.8790
vn -0.1418 -0.3871 0.9110
vn -0.2008 0.4305 0.8800
vn -0.0151 -0.6869 0.7266
vn -0.2104 -0.5210 0.8272
vn -0.1810 0.7911 0.5844
vn -0.2391 -0.7066 0.6659
vn -0.3558 0.6249 0.6949
vn -0.0793 -0.9676 0.2398
vn -0.4218 0.0015 0.9067
vn -0.4121 -0.5868 0.6971
vn 0.1313 -0.2536 -0.9584
vn -0.4024 -0.8349 0.3755
vn -0.2492 -0.8901 0.3816
vn -0.4658 0.8180 0.3374
vn -0.1920 -0.5298 0.8261
vn 0.0181 -0.4559 0.8898
vn 0.1021 0.3203 0.9418
vn -0.0448 -0.9988 -0.0205
vn -0.7797 0.6197 -0.0899
vn 0.3664 -0.9295 0.0425
vn -0.3425 0.7801 -0.5236
vn -0.0682 -0.4885 -0.8699
vn 0.0888 -0.4283 -0.8992
vn -0.6342 0.6011 -0.4863
vn 0.2043 0.3094 -0.9287
vn 0.0108 0.4419 -0.8970
vn -0.0922 0.9776 -0.1894
vn -0.5150 -0.6032 -0.6090
vn -0.3095 -0.8265 -0.4701
vn -0.3133 -0.8298 -0.4618
vn -0.3133 -0.8298 -0.4617
vn -0.1614 -0.9407 -0.2984
vn -0.5563 0.2102 -0.8040
vn -0.0320 -0.9976 -0.0622
vn -0.2733 -0.7561 -0.5946
vn -0.0843 -0.8229 -0.5620
vn -0.1530 0.7524 -0.6407
vn 0.0162 0.9978 -0.0637
vn -0.1973 -0.4990 -0.8438
vn -0.0906 0.7768 -0.6231
vn -0.0624 -0.6996 -0.7118
vn 0.2252 0.7911 -0.5687
vn -0.0604 0.3603 -0.9309
vn -0.0535 0.4356 -0.8985
vn 0.0491 0.0998 -0.9938
vn 0.0968 -0.6029 -0.7919
vn 0.0741 0.5275 -0.8463
vn 0.1068 0.1169 -0.9874
vn 0.2661 0.2975 -0.9169
vn 0.0774 0.9152 -0.3956
vn 0.1293 -0.7759 -0.6175
vn 0.0453 -0.9343 -0.3537
vn 0.1539 0.7150 -0.6819
vn 0.4174 0.6880 -0.5937
vn 0.2916 -0.4839 -0.8251
vn 0.6974 0.7071 -0.1167
vn 0.6985 0.7055 -0.1199
vn 0.6983 0.7057 -0.1204
vn 0.5804 0.3724 -0.7242
vn 0.7101 -0.3727 -0.5974
vn 0.4369 -0.7556 -0.4880
vn 0.1690 0.9849 -0.0373
vn 0.9827 0.0977 -0.1572
vn 0.2053 -0.9782 -0.0320
vn 0.9151 -0.3937 -0.0869
vn 0.2884 0.9571 -0.0283
vn 0.9448 0.0856 0.3162
vn 0.3210 -0.9470 0.0136
vn 0.5507 -0.8327 -0.0571
vn 0.8924 -0.3297 0.3080
vn 0.5229 0.6860 0.5060
vn 0.5955 -0.7303 0.3348
vn 0.2168 0.5644 0.7965
vn 0.7454 0.1840 0.6407
vn 0.0691 0.9971 0.0329
vn 0.5796 -0.2960 0.7592
vn 0.3786 -0.7529 0.5384
vn 0.2269 0.8510 0.4736
vn 0.3130 -0.8396 0.4440
vn 0.3060 -0.5894 0.7477
vn 0.1170 -0.0456 0.9921
vn 0.1235 -0.9013 0.4152
vn 0.2926 0.0366 0.9555
vn 0.0950 -0.6433 0.7597
vn 0.0703 -0.8715 0.4854
vn 0.0734 0.3093 0.9481
vn 0.0355 0.8939 0.4469
vn 0.1356 -0.2449 0.9600
vn 0.0717 0.2613 0.9626
vn 0.0339 0.6668 0.7444
vn -0.0410 -0.7508 0.6592
vn -0.0100 0.3031 0.9529
vn -0.0506 0.1403 0.9888
vn -0.0660 -0.3530 0.9333
vn -0.0400 0.9067 0.4199
vn -0.0796 0.5615 0.8236
vn -0.1218 -0.7978 0.5905
vn -0.1266 -0.7948 0.5935
vn -0.1278 -0.7939 0.5944
vn -0.6822 -0.4005 0.6117
vn -0.0965 0.8047 0.5859
vn -0.0675 -0.9539 0.2923
vn -0.1171 0.8062 0.5799
vn -0.3163 -0.4691 0.8246
vn -0.2572 0.5952 0.7613
vn -0.4028 -0.5007 0.7662
vn -0.4288 0.5498 0.7168
vn -0.3669 0.6401 0.6750
vn -0.0727 0.9768 0.2014
vn -0.6404 0.5252 0.5603
vn -0.2509 0.8930 0.3735
vn -0.1936 -0.9602 0.2011
vn -0.7576 0.2734 0.5927
vn -0.4120 -0.8417 0.3490
vn -0.3947 0.8348 0.3838
vn -0.2770 0.3194 0.9062
vn -0.4619 0.8855 -0.0504
vn -0.6876 -0.5720 0.4472
vn -0.0402 0.4178 0.9077
vn -0.6948 -0.7156 -0.0721
vn -0.6567 -0.7509 -0.0705
vn -0.3638 -0.8345 -0.4138
vn -0.6684 0.7413 -0.0600
vn -0.1736 0.3710 -0.9123
vn -0.7617 0.1914 -0.6191
vn -0.1825 0.8797 -0.4391
vn -0.6708 -0.5402 -0.5081
vn -0.1770 0.7649 -0.6194
vn -0.3852 0.7753 -0.5005
vn -0.4425 0.6651 -0.6015
vn -0.3137 -0.8301 -0.4611
vn -0.3813 0.3768 -0.8442
vn -0.0165 -0.3019 -0.9532
vn -0.0160 -0.3029 -0.9529
vn -0.0167 -0.3014 -0.9533
vn -0.2799 -0.3258 -0.9030
vn -0.1274 0.5563 -0.8211
vn -0.0948 -0.9225 -0.3741
vn -0.2158 -0.6907 -0.6901
vn -0.0402 0.9728 -0.2280
vn -0.1987 -0.4786 -0.8553
vn 0.2483 -0.5968 -0.7630
vn -0.0239 0.8275 -0.5610
vn -0.0662 -0.7806 -0.6216
vn -0.0385 -0.9646 -0.2611
vn -0.0208 -0.2377 -0.9711
vn -0.0033 0.8951 -0.4458
vn -0.0191 -0.5998 -0.7999
vn 0.0000 1.0000 0.0000
vn 0.1087 -0.3064 -0.9457
vn 0.2975 0.2533 -0.9205
vn 0.5159 0.6288 -0.5818
vn 0.6969 0.7076 -0.1168
vn 0.9839 0.1243 -0.1282
vn 0.9233 -0.3612 -0.1307
vn 0.3113 0.9489 -0.0519
vn 0.9496 0.0988 0.2973
vn 0.8513 -0.3750 0.3670
vn 0.5624 0.6612 0.4966
vn 0.2803 0.5122 0.8118
vn 0.1360 -0.0794 0.9875
vn 0.0447 0.8828 0.4677
vn 0.1488 0.0804 0.9856
vn -0.1205 -0.7986 0.5897
vn -0.4688 -0.5167 0.7164
vn -0.1154 0.9811 0.1552
vn -0.6820 0.4816 0.5505
vn -0.3123 0.8900 0.3322
vn -0.3108 -0.4699 0.8262
vn -0.5133 0.8574 0.0376
vn -0.1845 -0.4365 -0.8806
vn -0.7846 0.1136 -0.6095
vn -0.2717 0.8733 -0.4043
vn -0.3875 0.6450 -0.6586
vn -0.0158 -0.3035 -0.9527
vn -1.0000 -0.0000 0.0000
vn 0.0000 0.0000 -1.0000
vn 1.0000 -0.0000 0.0000
vn 0.0000 -0.0000 1.0000
vn 0.0000 -1.0000 0.0000
usemtl Material.001
s 1
f 1/1/1 2/2/1 3/3/1
f 4/4/2 5/5/2 6/6/2
f 7/7/3 3/8/3 8/9/3
f 9/10/4 10/11/4 4/12/4
f 3/13/5 11/14/5 12/15/5
f 13/16/6 14/17/6 15/18/7
f 8/19/8 16/20/8 17/21/8
f 8/19/9 17/22/9 9/23/9
f 2/24/10 15/25/10 18/26/10
f 2/24/11 18/27/11 11/28/11
f 10/29/12 19/30/12 5/31/12
f 16/32/13 20/33/13 21/34/13
f 16/32/14 21/35/14 17/21/14
f 17/36/15 22/37/15 10/38/15
f 11/39/16 18/27/16 23/40/16
f 5/41/17 24/42/17 25/43/17
f 26/44/18 25/45/18 24/46/18
f 18/47/19 27/48/19 28/49/19
f 22/50/20 29/51/20 19/52/20
f 23/53/21 30/54/21 31/55/21
f 5/41/22 32/56/22 24/46/22
f 31/57/23 33/58/23 34/59/23
f 30/60/24 35/61/24 31/55/24
f 36/62/25 37/63/25 38/64/25
f 38/65/26 37/63/26 39/66/26
f 40/67/27 39/68/27 41/69/27
f 28/70/28 42/71/28 30/72/28
f 36/62/29 43/73/29 37/74/29
f 27/75/30 42/71/30 28/49/30
f 41/76/31 44/77/31 45/78/31
f 42/79/32 46/80/32 43/81/32
f 24/82/33 45/83/33 26/84/33
f 47/85/34 48/86/34 44/87/34
f 46/88/35 49/89/35 50/90/35
f 51/91/36 52/92/36 48/93/36
f 48/94/37 53/95/37 44/87/37
f 52/96/38 54/97/38 53/98/38
f 50/99/39 55/100/39 56/101/39
f 57/102/40 54/97/40 52/103/40
f 54/104/41 58/105/41 53/98/41
f 55/106/42 59/107/42 60/108/42
f 54/104/43 57/109/43 61/110/43
f 62/111/44 56/112/44 63/113/44
f 64/114/45 65/115/45 26/84/45
f 62/111/46 63/116/46 57/117/46
f 61/118/47 66/119/47 58/120/47
f 9/10/48 67/121/48 8/122/48
f 66/123/49 68/124/49 58/120/49
f 58/125/50 68/124/50 64/126/50
f 69/127/51 70/128/51 71/129/51
f 68/130/52 72/131/52 73/132/52
f 68/130/53 73/133/53 65/134/53
f 74/135/54 75/136/54 76/137/54
f 26/44/55 65/115/55 77/138/55
f 78/139/56 79/140/56 70/141/56
f 65/142/57 73/133/57 77/138/57
f 79/143/58 80/144/58 81/145/58
f 72/146/59 82/147/59 73/132/59
f 73/148/60 82/147/60 77/138/60
f 81/149/61 83/150/61 84/151/61
f 75/152/62 85/153/62 76/137/62
f 76/154/63 85/153/63 78/155/63
f 75/152/64 86/156/64 85/157/64
f 87/158/65 88/159/65 89/160/65
f 82/161/66 89/162/67 90/163/68
f 82/161/69 90/164/69 77/138/69
f 83/165/70 91/166/70 88/167/70
f 26/44/71 77/168/71 25/43/71
f 91/169/72 92/170/72 88/167/72
f 90/171/73 93/172/73 6/6/73
f 94/173/74 95/174/74 91/175/74
f 75/152/75 14/17/6 13/176/6
f 89/177/76 92/170/76 96/178/76
f 86/179/77 1/180/77 97/181/77
f 93/182/78 96/183/78 4/12/78
f 94/173/79 98/184/79 95/185/79
f 1/1/80 7/186/80 94/187/80
f 94/173/81 7/186/81 98/188/81
f 98/189/82 7/186/82 67/121/82
f 99/190/83 9/191/83 4/12/83
f 7/7/84 1/180/84 3/3/84
f 67/192/85 7/186/85 8/9/85
f 12/193/86 8/9/86 3/194/86
f 2/24/87 13/195/87 15/18/87
f 4/4/88 10/11/88 5/31/88
f 6/196/89 5/5/89 25/43/89
f 3/13/90 2/2/90 11/28/90
f 23/53/91 12/15/91 11/197/91
f 9/10/92 17/22/92 10/38/92
f 34/198/93 23/199/94 31/57/95
f 16/32/96 12/200/96 20/201/96
f 17/36/97 21/35/97 22/202/97
f 10/29/98 22/37/98 19/52/98
f 18/47/99 15/25/99 27/203/99
f 100/204/100 20/205/100 34/206/100
f 19/207/101 32/56/101 5/31/101
f 22/37/102 100/208/102 101/209/102
f 30/54/103 18/210/103 28/70/103
f 100/204/104 33/211/104 38/65/104
f 19/207/105 29/51/105 32/212/105
f 29/213/106 22/37/106 101/214/106
f 38/65/107 101/214/107 100/208/107
f 36/62/108 31/55/108 35/215/108
f 29/213/109 101/216/109 40/217/109
f 43/218/110 35/219/110 42/220/110
f 33/221/111 36/222/111 38/64/111
f 15/223/112 14/17/112 27/203/112
f 40/67/113 38/224/113 39/66/113
f 29/213/114 40/225/114 41/69/114
f 30/60/115 42/71/115 35/219/115
f 32/226/116 29/51/116 41/69/116
f 41/76/117 39/68/117 47/227/117
f 48/94/118 43/81/118 51/228/118
f 24/82/119 32/56/119 41/69/119
f 37/229/120 43/73/120 39/66/120
f 41/76/121 47/230/121 44/87/121
f 24/82/122 41/231/122 45/78/122
f 43/218/123 46/80/123 51/232/123
f 49/233/124 27/203/124 14/234/124
f 47/85/125 39/68/125 48/93/125
f 57/102/126 50/90/126 62/235/126
f 42/79/127 49/89/127 46/236/127
f 44/237/128 53/95/128 45/78/128
f 51/91/129 46/80/129 50/90/129
f 51/91/130 50/238/130 52/103/130
f 48/94/131 52/92/131 53/98/131
f 49/233/132 14/17/132 59/239/132
f 50/99/133 49/89/133 55/240/133
f 64/114/134 53/98/135 58/241/136
f 66/123/137 63/113/137 102/242/137
f 62/111/138 50/238/138 56/101/138
f 45/243/139 64/244/139 26/84/139
f 55/106/140 49/89/140 59/239/140
f 54/104/141 61/245/141 58/120/141
f 56/246/142 55/100/142 60/108/142
f 57/102/143 63/116/143 61/110/143
f 56/246/144 60/247/144 69/248/144
f 63/249/145 56/112/145 69/248/145
f 75/152/146 59/239/146 14/234/146
f 71/250/147 63/113/147 69/251/147
f 74/135/148 60/108/148 59/252/148
f 64/114/149 68/124/149 65/134/149
f 102/253/150 63/116/150 84/151/150
f 103/254/151 68/255/151 66/256/151
f 69/127/152 60/247/152 70/141/152
f 74/135/153 78/257/153 70/141/153
f 81/149/154 70/141/154 79/258/154
f 66/123/155 102/259/155 103/260/155
f 74/135/156 76/261/156 78/155/156
f 103/254/157 102/259/157 87/262/157
f 72/146/158 103/263/158 87/262/158
f 82/161/159 87/262/159 89/264/159
f 71/250/160 81/265/160 84/151/160
f 79/143/161 78/257/161 85/157/161
f 88/266/162 84/151/162 83/267/162
f 97/268/163 85/157/163 86/269/163
f 87/158/164 102/259/164 88/167/164
f 91/270/165 80/271/165 94/173/165
f 79/143/166 97/272/166 80/273/166
f 81/149/167 80/144/167 83/274/167
f 90/171/68 89/162/67 93/275/168
f 80/276/169 97/272/169 94/187/169
f 67/192/170 96/178/171 92/277/172
f 89/177/173 88/159/173 92/278/173
f 97/268/174 1/180/174 94/187/174
f 77/279/175 90/164/175 6/6/175
f 92/280/176 91/166/176 95/185/176
f 75/152/177 13/195/177 86/281/177
f 93/182/178 89/162/178 96/178/178
f 92/280/179 95/174/179 98/188/179
f 86/179/180 2/2/180 1/282/180
f 6/196/181 93/172/181 4/12/181
f 25/283/182 77/168/182 6/6/182
f 92/280/183 98/184/183 67/121/183
f 86/179/184 13/195/184 2/284/184
f 4/4/185 96/183/185 99/285/185
f 104/286/186 105/287/186 106/288/186
f 9/10/187 99/289/187 67/121/187
f 12/193/188 16/20/188 8/9/188
f 23/53/189 20/33/189 12/15/189
f 34/198/93 20/201/190 23/199/94
f 100/204/191 21/34/191 20/205/191
f 22/37/192 21/34/192 100/208/192
f 30/54/193 23/40/193 18/210/193
f 100/204/194 34/59/194 33/211/194
f 38/65/195 40/225/195 101/214/195
f 36/62/196 33/58/196 31/55/196
f 43/218/197 36/222/197 35/219/197
f 48/94/198 39/68/198 43/81/198
f 49/233/199 42/71/199 27/203/199
f 57/102/200 52/92/200 50/90/200
f 64/114/134 45/83/201 53/98/135
f 66/123/202 61/245/202 63/113/202
f 75/152/203 74/290/203 59/239/203
f 71/250/204 84/291/204 63/113/204
f 74/135/205 70/128/205 60/108/205
f 103/254/206 72/131/206 68/255/206
f 81/149/207 71/292/207 70/141/207
f 82/161/208 72/131/208 87/262/208
f 88/266/209 102/259/209 84/151/209
f 97/268/210 79/140/210 85/157/210
f 91/270/211 83/274/211 80/271/211
f 67/192/170 99/289/212 96/178/171
f 104/286/186 107/293/186 105/287/186
usemtl Material.002
f 108/294/213 107/295/213 109/296/213
f 109/297/214 104/298/214 110/299/214
f 110/300/215 106/301/215 111/302/215
f 111/303/216 105/287/216 108/304/216
f 109/297/217 111/305/217 108/304/217
f 108/294/213 105/306/213 107/295/213
f 109/297/214 107/293/214 104/298/214
f 110/300/215 104/307/215 106/301/215
f 111/303/216 106/308/216 105/287/216
f 109/297/217 110/309/217 111/305/217
